<?xml version="1.0" encoding="UTF-8" standalone="no"?>
<svg
   width="512"
   height="512"
   version="1.1"
   id="svg2"
   xmlns="http://www.w3.org/2000/svg"
   xmlns:svg="http://www.w3.org/2000/svg">
  <defs
     id="defs2" />
  <path
     fill="#fdfcfa"
     d="M 0,0 H 512 V 512 H 0 Z"
     id="path1"
     style="stroke-width:0.999999" />
  <path
     fill="#b5a0d8"
     d="m 116.08689,107.69454 c 4.4436,-0.65754 9.61593,0.49978 13.87246,1.69479 31.63571,8.88162 54.96776,54.18458 73.05209,79.66513 8.09425,11.40567 16.56404,22.7164 28.56581,30.31785 8.22967,5.21142 17.22716,7.44649 26.93105,6.83921 54.79326,-3.42449 71.91153,-105.76414 126.37392,-117.58303 9.06031,-1.96702 18.02849,-0.87253 25.88262,4.29143 15.6273,10.27627 21.47532,30.0875 25.06035,47.41657 3.55851,17.19923 3.6688,35.61721 2.81722,53.10683 -2.13874,43.88877 -11.89847,88.99629 -32.0629,128.28789 -4.17836,8.14312 -8.99191,15.92047 -14.00789,23.56799 -1.63337,2.40398 -3.3868,4.7605 -5.15838,7.06536 -11.21859,14.58306 -26.58622,29.47464 -45.67849,31.83954 -41.65511,5.15837 -45.02515,-59.40439 -70.7919,-78.96573 -5.50739,-4.18254 -12.12603,-5.57858 -18.92475,-4.60694 -19.86149,2.83955 -29.86274,32.16481 -37.3888,47.83539 -3.18018,6.62282 -6.73451,13.25542 -11.16834,19.12856 -6.15515,8.15289 -14.34991,15.14706 -24.78114,16.5459 -12.79751,1.71434 -25.09943,-3.81399 -35.05461,-11.44615 -38.06029,-29.18287 -61.414679,-102.19866 -67.352046,-147.86041 -4.512008,-34.70281 -8.145906,-92.9736 14.764541,-122.41891 6.412022,-8.24224 14.619355,-13.42435 25.049185,-14.72127 z"
     id="path2"
     style="stroke-width:1.39604" />
</svg>
